<svg width="53" height="40" viewBox="0 0 53 40" fill="none" xmlns="http://www.w3.org/2000/svg">
  <path d="M39.9161 37.788C38.8735 37.54 37.7895 36.7894 37.1001 35.956C36.4828 35.2094 36.1441 34.2747 35.8881 33.3401C35.4855 31.8747 35.2601 30.4761 35.3215 28.9694C35.3255 28.8787 35.3148 28.7894 35.3028 28.7001C34.8321 24.9854 35.3481 20.9147 35.3948 17.1707C35.3948 15.0654 35.3255 12.9801 35.3921 10.9014C35.0575 10.5107 34.7015 10.1281 34.5028 9.67338C34.0308 9.44272 33.7695 8.94005 33.8201 8.24939C33.8348 8.04405 34.0001 7.81472 34.2321 7.83605C34.5041 7.86405 34.7868 7.89472 35.0668 7.90272C35.1895 7.79739 35.3201 7.70005 35.4481 7.60805C35.5135 7.56272 35.5868 7.54672 35.6601 7.55072C35.7255 7.06005 35.8055 6.56805 35.9028 6.07738C36.0761 5.20272 36.2548 4.31605 36.6415 3.51072C37.2708 2.20539 38.3281 1.62539 39.6895 1.31205C39.8081 1.28405 39.9201 1.22139 40.0148 1.13605C40.0735 1.08272 40.1375 1.03472 40.2068 0.99472C40.3175 0.929387 40.4081 0.856051 40.4281 0.716051C40.4401 0.640051 40.2548 0.366718 40.1068 0.229385C39.9215 0.0613851 39.6441 0.152053 39.3775 0.162719C36.5615 0.260053 33.7388 0.180053 30.9188 0.190719C30.4615 0.193386 30.0041 0.197386 29.5468 0.205386C29.5188 0.205386 29.0388 0.205387 28.8921 0.262721C27.4108 0.86272 28.0348 4.35072 28.0415 5.59072C28.0521 7.49472 27.8975 9.39738 27.9215 11.3027C27.9455 13.3187 28.2935 15.4854 28.0775 17.4867C27.7695 20.3614 28.1615 23.3574 28.1401 26.244C28.1348 26.9547 28.1108 27.6641 28.1641 28.3774C28.3948 31.5107 28.2375 34.7267 28.2388 37.8694C28.2388 38.068 28.3308 38.192 28.5321 38.216C28.6428 38.2294 28.6961 38.292 28.6908 38.3974C28.6855 38.508 28.7375 38.556 28.8388 38.5907C28.8988 38.6094 28.9348 38.7094 29.0001 38.7094C30.6081 38.7227 32.1735 38.736 33.4535 38.7907C35.0935 38.8587 36.6121 38.8934 38.3001 38.8174C38.8921 38.7907 39.6055 38.9107 40.1681 38.7227C40.3321 38.668 40.3895 38.2867 40.3428 38.1134C40.2801 37.88 40.1735 37.8507 39.9161 37.788Z" fill="black"/>
  <path d="M23.5293 19.5133C23.3827 19.1666 23.0933 19.0079 22.7413 18.9426C20.1893 18.4693 17.1613 18.2773 15.3853 16.0906C15.3293 16.0213 15.244 15.9773 15.1733 15.9186C15.0267 15.7946 14.868 15.6759 14.772 15.5079C13.8787 13.9533 13.1693 12.8786 12.996 10.9999C12.8333 9.23461 13.1547 7.59861 13.96 6.01061C15.6427 2.69327 18.9227 1.57194 22.4227 1.47327C22.616 1.46794 22.804 1.42794 22.984 1.35327C23.136 1.29061 23.252 1.19994 23.296 1.02394C23.3333 0.88394 23.2067 0.689273 23.0173 0.458607C22.9787 0.41194 22.9 0.390607 22.8347 0.374607C22.704 0.341274 22.5707 0.31594 22.4373 0.29194C19.184 -0.26006 14.908 -0.0200612 11.76 0.933272C11.3653 1.05327 11.0147 1.25461 10.644 1.41994C10.6133 1.43194 10.588 1.45594 10.5613 1.47861C10.4413 1.58127 10.304 1.65994 10.164 1.73461C7.33335 3.23994 5.48135 7.14261 5.47068 10.2013C5.45201 15.4666 9.86001 18.6906 14.6627 19.5119C15.3013 19.6213 16.836 19.4466 17.2107 19.8573C13.808 21.3986 11.8347 24.3999 10.0293 27.5319C8.79068 29.6813 7.55335 31.8293 6.31468 33.9786C5.55201 35.3026 3.37068 37.4266 2.01468 38.1306C1.56801 38.3639 0.993345 38.5133 0.633345 38.5799C0.268012 38.6493 -0.147987 38.6573 0.052013 38.9719C0.21068 39.2226 0.728013 39.3213 1.02401 39.3439C3.21735 39.5079 3.17201 39.3586 5.37335 39.3586C6.23735 39.3586 8.33601 38.6079 8.87601 38.2199C10.028 37.3906 10.8067 36.7839 11.908 35.8279C11.948 35.7933 13.196 35.1386 13.2293 35.0973L13.484 34.7639C13.8907 34.2239 14.2733 33.6666 14.64 33.0986C14.5867 33.0133 14.5627 32.9066 14.592 32.7853C14.76 32.0626 14.2573 31.2693 14.5787 30.5973C14.5347 30.5373 14.5067 30.4599 14.5133 30.3626C14.5453 29.8893 14.6827 29.5026 14.8867 29.0786C15.0413 28.7559 15.56 28.8479 15.64 29.1759C15.7067 29.4493 15.824 29.3706 15.8907 29.6573C16.2267 30.0666 16.5493 29.8986 16.6987 29.9666C16.724 29.9133 16.748 29.1653 16.772 29.1119C16.7747 28.7346 16.756 28.3586 16.764 27.9839C16.672 27.8146 16.5867 27.6466 16.6147 27.4933C16.6667 27.3079 16.6413 26.7199 16.872 26.4293C16.8693 26.3493 16.8653 26.2679 16.868 26.1919C16.8787 25.8959 17.2173 25.6533 17.488 25.8346C17.668 25.9559 18.0507 26.2586 18.3613 26.3333C18.4093 26.3013 18.4547 26.2653 18.5027 26.2319C19.2027 24.5986 19.8333 23.5639 20.7973 22.1719C21.5267 21.1226 22.3187 20.5053 23.48 20.0119C23.5947 19.9626 23.5773 19.6293 23.5293 19.5133Z" fill="black"/>
  <path d="M52.2782 0.76326C52.2929 2.25926 52.2915 3.75526 52.2902 5.24993C52.2889 5.71659 52.0369 9.16059 51.9569 9.13793C51.9209 9.12859 51.8729 9.16326 51.8329 9.17926C51.6809 9.23526 51.5235 9.23926 51.3635 9.22726C51.2902 9.22059 51.2302 9.18859 51.2222 9.11126C50.8782 5.78593 48.9622 2.44593 45.5342 1.66326C45.4689 1.64859 45.4022 1.62726 45.3435 1.59659C45.0155 1.42059 44.6555 1.31393 44.3289 1.12593C43.8155 0.83126 43.7875 0.240593 44.1822 0.204593C44.8622 0.140593 46.2555 0.188593 46.4155 0.18326C48.0169 0.133926 49.9169 0.180593 51.5342 0.204593C51.5689 0.204593 51.7702 0.281926 51.8049 0.28726C51.8822 0.29926 52.2782 0.680593 52.2782 0.76326Z" fill="black"/>
  <path d="M51.5763 30.6617C51.7549 30.6337 51.9109 30.6644 52.0683 30.6804C53.2709 30.8057 52.1163 37.6711 52.2803 38.6337C52.3909 39.2897 50.0309 38.8964 49.6923 38.8964C48.0216 38.8964 46.3496 38.8591 44.6803 38.8591C44.5163 38.8471 44.2149 38.8937 44.0936 38.7577C43.4723 38.0604 44.0096 37.9471 44.7029 37.7417C47.9043 36.7924 50.9336 35.1471 51.1963 31.3724C51.2043 31.2617 51.2683 31.1857 51.3349 31.1097C51.5163 30.9111 51.5163 30.9111 51.5763 30.6617Z" fill="black"/>
  <path d="M45.7091 19.6175C45.6425 20.4242 46.2585 24.3895 45.3505 24.5482C44.5038 24.6975 43.9651 22.6428 43.5678 22.1455C42.5185 20.8322 41.1265 20.4122 39.4945 20.4215C39.0558 20.4228 38.6345 20.0348 38.7305 19.5722C38.8545 18.9588 39.6891 18.9788 40.1851 18.8788C41.3705 18.6428 43.0625 18.4962 43.8531 17.4508C43.9758 17.2895 44.0411 17.0935 44.1051 16.9015C44.1811 16.6655 44.7598 14.2748 45.3945 14.9095C45.5705 15.1268 45.7518 15.3482 45.7905 15.6455C45.9558 16.9428 45.8198 18.2842 45.7091 19.6175Z" fill="black"/>
</svg>
